HIERARCHY
ROOT SpineBase
{
  OFFSET 0.000000 0.000000 0.000000
  CHANNELS 6 Xposition Yposition Zposition Zrotation Xrotation Yrotation
  JOINT SpineMid
  {
    OFFSET -0.000000 33.159051 0.000000
    CHANNELS 3 Zrotation Xrotation Yrotation
    JOINT SpineShoulder
    {
      OFFSET -0.310349 24.416669 -0.748147
      CHANNELS 3 Zrotation Xrotation Yrotation
      JOINT Neck
      {
        OFFSET -0.105896 8.026857 -0.605768
        CHANNELS 3 Zrotation Xrotation Yrotation
        JOINT Head
        {
          OFFSET -4.098583 10.296582 4.808639
          CHANNELS 3 Zrotation Xrotation Yrotation
          End Site
          {
            OFFSET 0 0 0
          }
        }
      }
      JOINT ShoulderLeft
      {
        OFFSET -1.309641 -8.307711 -17.267366
        CHANNELS 3 Zrotation Xrotation Yrotation
        JOINT ElbowLeft
        {
          OFFSET -5.462668 -24.078982 2.063213
          CHANNELS 3 Zrotation Xrotation Yrotation
          JOINT WristLeft
          {
            OFFSET -3.644931 -22.871495 10.172215
            CHANNELS 3 Zrotation Xrotation Yrotation
            JOINT HandLeft
            {
              OFFSET -7.199283 -16.487061 4.057945
              CHANNELS 3 Zrotation Xrotation Yrotation
              JOINT HandTipLeft
              {
                OFFSET -0.911376 -0.750236 -1.137934
                CHANNELS 3 Zrotation Xrotation Yrotation
                End Site
                {
                  OFFSET 0 0 0
                }
              }
              JOINT ThumbLeft
              {
                OFFSET 1.228156 -0.075993 -3.633168
                CHANNELS 3 Zrotation Xrotation Yrotation
                End Site
                {
                  OFFSET 0 0 0
                }
              }
            }
          }
        }
      }
      JOINT ShoulderRight
      {
        OFFSET 1.140135 -5.350994 -12.691895
        CHANNELS 3 Zrotation Xrotation Yrotation
        JOINT ElbowRight
        {
          OFFSET -5.628562 -25.236615 -5.915319
          CHANNELS 3 Zrotation Xrotation Yrotation
          JOINT WristRight
          {
            OFFSET -7.356679 -24.811209 3.641303
            CHANNELS 3 Zrotation Xrotation Yrotation
            JOINT HandRight
            {
              OFFSET -1.225281 -10.426441 2.099468
              CHANNELS 3 Zrotation Xrotation Yrotation
              JOINT HandTipRight
              {
                OFFSET -2.400766 -5.834815 2.011349
                CHANNELS 3 Zrotation Xrotation Yrotation
                End Site
                {
                  OFFSET 0 0 0
                }
              }
              JOINT ThumbRight
              {
                OFFSET 4.124536 -0.647931 1.095362
                CHANNELS 3 Zrotation Xrotation Yrotation
                End Site
                {
                  OFFSET 0 0 0
                }
              }
            }
          }
        }
      }
    }
  }
  JOINT HipLeft
  {
    OFFSET -2.769425 -0.276990 0.717482
    CHANNELS 3 Zrotation Xrotation Yrotation
    JOINT KneeLeft
    {
      OFFSET 18.280107 -30.630784 14.010041
      CHANNELS 3 Zrotation Xrotation Yrotation
      JOINT AnkleLeft
      {
        OFFSET 5.503015 -31.404941 1.834163
        CHANNELS 3 Zrotation Xrotation Yrotation
        JOINT FootLeft
        {
          OFFSET -2.976413 -6.135366 -10.533016
          CHANNELS 3 Zrotation Xrotation Yrotation
          End Site
          {
            OFFSET 0 0 0
          }
        }
      }
    }
  }
  JOINT HipRight
  {
    OFFSET 2.245753 1.235278 -8.858004
    CHANNELS 3 Zrotation Xrotation Yrotation
    JOINT KneeRight
    {
      OFFSET 1.769937 -32.211014 5.132236
      CHANNELS 3 Zrotation Xrotation Yrotation
      JOINT AnkleRight
      {
        OFFSET 7.729728 -33.851942 2.890711
        CHANNELS 3 Zrotation Xrotation Yrotation
        JOINT FootRight
        {
          OFFSET -3.702887 -6.390884 -0.890885
          CHANNELS 3 Zrotation Xrotation Yrotation
          End Site
          {
            OFFSET 0 0 0
          }
        }
      }
    }
  }
}
MOTION
Frames: 10
Frame Time: 0.033333
4.293920 70.001789 338.338873 2.325363 -0.327977 56.661318 -0.093627 0.107991 -56.591299 0.488617 -0.484890 0.137943 -0.462069 7.262638 1.167783 0.000000 0.000000 0.000000 -41.873964 43.440667 2.608331 -128.503495 -2.976903 -156.519243 94.551961 2.382254 -50.808599 173.734921 -21.756538 143.657027 0.000000 0.000000 0.000000 0.000000 0.000000 0.000000 -41.917528 31.050834 12.309374 -70.301505 45.216008 -18.248079 -28.796774 13.436768 8.231906 25.449586 -24.164063 -43.585930 0.000000 0.000000 0.000000 0.000000 0.000000 0.000000 2.640019 2.197272 -54.039853 -1.704482 -1.465354 -2.485511 4.933577 -2.553156 -8.945846 0.000000 0.000000 0.000000 -6.806083 5.958681 -57.394560 7.194857 3.554150 1.199728 0.801372 -1.624787 0.089821 0.000000 0.000000 0.000000
4.354191 70.592533 339.089232 2.499267 -1.186682 51.854372 0.078196 0.522180 -51.778219 0.090321 0.039165 0.101252 0.609414 8.092058 1.191896 0.000000 0.000000 0.000000 -55.289676 45.071462 7.841323 -93.706323 17.463543 -134.576587 84.581135 -38.766134 -27.764618 -138.159874 -43.153196 -163.885639 0.000000 0.000000 0.000000 0.000000 0.000000 0.000000 -48.379838 28.939948 15.317176 -65.566568 53.633162 -8.503938 -37.199809 19.367089 40.069631 24.796081 -37.252913 -58.505503 0.000000 0.000000 0.000000 0.000000 0.000000 0.000000 2.879570 3.509931 -49.361705 -1.014947 -1.969252 -2.408545 5.317917 -2.341075 -10.091693 0.000000 0.000000 0.000000 -4.730803 8.396059 -52.520249 8.008408 0.634832 1.381153 0.923439 -1.613792 -0.034440 0.000000 0.000000 0.000000
4.299792 70.788532 339.360445 2.161743 -1.270418 48.896332 0.078981 0.296178 -48.827418 0.030829 0.119425 0.090162 2.090287 8.951622 0.782431 0.000000 0.000000 0.000000 -67.264035 43.280501 11.789157 -64.065269 30.113396 -102.088906 30.684205 -27.861219 5.152287 -55.515550 35.901677 170.160369 0.000000 0.000000 0.000000 0.000000 0.000000 0.000000 -53.656174 25.652348 17.356717 -57.230364 59.431997 -0.216714 -48.347114 -6.682901 -138.490646 -52.705680 20.900145 124.600243 0.000000 0.000000 0.000000 0.000000 0.000000 0.000000 2.884189 3.302541 -46.470557 -0.841439 -2.080920 -2.351584 3.996226 -3.747836 -7.402486 0.000000 0.000000 0.000000 -4.175698 8.911949 -49.579988 8.450110 -0.350836 1.507543 1.223929 -1.672418 -0.200295 0.000000 0.000000 0.000000
4.338717 70.934790 339.515915 2.023666 -1.267358 45.752621 0.007076 0.307229 -45.689682 -0.111088 0.147853 0.072876 2.634364 9.066086 0.723964 0.000000 0.000000 0.000000 -74.268491 39.170885 12.479011 -51.144209 50.384277 -58.345386 11.880603 -4.107510 29.635166 4.707088 4.814893 75.058309 0.000000 0.000000 0.000000 0.000000 0.000000 0.000000 -60.328953 20.769796 19.335771 -51.615340 61.132843 5.095290 -69.990164 15.801742 101.209395 -16.204480 -72.811305 -117.105600 0.000000 0.000000 0.000000 0.000000 0.000000 0.000000 2.823986 2.933502 -43.333179 -1.396408 -1.266312 -2.275519 0.853111 -3.266374 -1.859587 0.000000 0.000000 0.000000 -4.583612 9.379089 -46.454087 9.198870 -0.656831 1.692214 1.773828 -1.914558 -0.330398 0.000000 0.000000 0.000000
4.097857 71.044312 339.586027 1.610986 -1.194859 43.403336 0.010808 0.148080 -43.354449 -0.202175 0.211640 0.054435 2.033104 8.558375 1.105636 0.000000 0.000000 0.000000 -84.670028 33.377415 12.652040 -47.968970 47.137854 -47.350200 9.349231 -1.032878 33.586308 6.542515 0.856191 70.091772 0.000000 0.000000 0.000000 0.000000 0.000000 0.000000 -65.149528 14.393355 19.651434 -49.636287 59.290738 7.941691 -69.591394 -10.085831 170.954226 -78.128567 -31.277345 158.814709 0.000000 0.000000 0.000000 0.000000 0.000000 0.000000 3.345908 2.204495 -40.751941 -2.055133 -0.858256 -2.468623 -1.557319 -4.631333 2.869559 0.000000 0.000000 0.000000 -4.947663 9.131594 -44.142079 9.829574 -0.471619 1.830846 1.952213 -2.000982 -0.522912 0.000000 0.000000 0.000000
3.815392 71.093006 339.655359 1.214526 -1.234409 43.480271 0.025126 0.010709 -43.445412 -0.293938 0.111161 0.035783 1.207988 9.245838 1.934045 0.000000 0.000000 0.000000 -91.348050 24.726581 9.097889 -45.627060 27.422380 -65.084125 -0.394884 4.251381 49.572282 9.506869 6.249351 80.690247 0.000000 0.000000 0.000000 0.000000 0.000000 0.000000 -70.411614 9.370668 20.258709 -42.716093 52.438175 1.471030 -53.119367 -33.270963 -131.576393 -79.156391 6.449449 125.897469 0.000000 0.000000 0.000000 0.000000 0.000000 0.000000 4.163718 1.843907 -40.480478 -2.320323 -1.114199 -2.821636 -4.265049 -5.829011 7.822035 0.000000 0.000000 0.000000 -5.360225 8.546122 -44.285141 10.390275 0.548913 1.921355 1.910966 -2.258043 -0.608118 0.000000 0.000000 0.000000
3.671968 71.362808 339.866541 1.033844 -1.590650 46.175497 0.013300 0.070029 -46.150185 -0.339303 -0.047595 0.022289 -0.737070 10.407571 3.426668 0.000000 0.000000 0.000000 -96.346496 13.031544 2.211134 -43.475817 7.908557 -73.462672 -15.255611 7.968981 66.682447 12.642155 0.338327 85.771592 0.000000 0.000000 0.000000 0.000000 0.000000 0.000000 -75.157163 3.650500 20.159694 -37.415942 41.198438 -7.881066 -32.523389 -36.666314 -92.027153 -60.757107 25.426117 90.137972 0.000000 0.000000 0.000000 0.000000 0.000000 0.000000 5.528625 2.902960 -42.472806 -1.981163 -2.546179 -3.596180 -4.053596 -4.891219 6.480321 0.000000 0.000000 0.000000 -5.902810 8.539408 -47.061027 11.328112 1.993866 2.021317 1.708420 -2.264049 -0.804868 0.000000 0.000000 0.000000
3.674490 71.575500 340.258800 1.084214 -2.303767 45.827807 -0.032691 0.226137 -45.803535 -0.335235 -0.263044 0.018085 -4.427018 11.125248 5.595144 0.000000 0.000000 0.000000 -98.338354 2.015160 -4.799269 -37.977198 -10.795081 -76.467595 -6.291919 4.887311 51.602753 1.301345 22.514821 109.207654 0.000000 0.000000 0.000000 0.000000 0.000000 0.000000 -80.116023 -0.089533 20.839003 -28.481336 26.561730 -20.328032 -16.580606 -39.059826 -67.521518 -48.241107 24.636478 60.753839 0.000000 0.000000 0.000000 0.000000 0.000000 0.000000 6.341699 4.185651 -41.887459 -1.456050 -3.623316 -3.940318 -4.792695 -5.059506 7.469391 0.000000 0.000000 0.000000 -5.789806 9.917156 -46.687428 12.489770 1.816809 2.240311 1.433353 -2.322548 -0.949318 0.000000 0.000000 0.000000
3.761673 71.655378 340.757501 1.218202 -3.183554 43.005754 -0.134125 0.425551 -42.975226 -0.350882 -0.492300 0.013857 -8.395653 11.051555 7.697432 0.000000 0.000000 0.000000 -95.903570 -10.237042 -12.024503 -28.922571 -26.110490 -71.040969 -0.202102 3.474445 41.013594 -15.280769 34.576762 126.800668 0.000000 0.000000 0.000000 0.000000 0.000000 0.000000 -80.376593 -5.102081 19.560735 -28.305169 13.632854 -27.670904 -9.246092 -28.493170 -47.750795 -34.716485 19.082445 41.406309 0.000000 0.000000 0.000000 0.000000 0.000000 0.000000 6.525654 5.489925 -39.197011 -0.889954 -4.164799 -3.902889 -5.917301 -3.465826 8.178171 0.000000 0.000000 0.000000 -5.410789 12.311063 -43.762748 13.928374 0.301641 2.611383 0.951327 -2.458072 -0.978816 0.000000 0.000000 0.000000
3.964695 71.581580 341.244809 1.424244 -4.055167 37.782331 -0.350005 0.588505 -37.734977 -0.352121 -0.713398 0.011740 -11.348870 10.811933 9.180704 0.000000 0.000000 0.000000 -90.482781 -22.057593 -17.275534 -14.297713 -33.368811 -56.974080 3.486963 1.858357 33.095479 -22.832197 36.005127 133.179362 0.000000 0.000000 0.000000 0.000000 0.000000 0.000000 -75.836737 -10.950660 16.875116 -30.519875 1.310526 -31.626714 -11.875906 -13.776093 -29.039559 -8.611067 10.219186 15.694516 0.000000 0.000000 0.000000 0.000000 0.000000 0.000000 5.778776 6.736050 -34.455757 -0.157190 -4.082948 -3.438566 -5.861554 -2.154981 7.107295 0.000000 0.000000 0.000000 -5.469495 17.712413 -38.308651 17.972501 -5.492588 3.508301 -0.109960 -0.359430 -1.195821 0.000000 0.000000 0.000000
